<svg width="124" height="124" viewBox="0 0 124 124" fill="none" xmlns="http://www.w3.org/2000/svg">
<path d="M36.8125 62C36.8125 61.2292 36.5063 60.49 35.9613 59.945C35.4163 59.3999 34.677 59.0938 33.9063 59.0938C33.1355 59.0938 32.3963 59.3999 31.8512 59.945C31.3062 60.49 31 61.2292 31 62C30.9989 69.9763 33.9795 77.6649 39.3567 83.5562C44.734 89.4474 52.1192 93.1158 60.0625 93.8409V105.594C60.0625 106.365 60.3687 107.104 60.9137 107.649C61.4588 108.194 62.198 108.5 62.9688 108.5C63.7395 108.5 64.4788 108.194 65.0238 107.649C65.5688 107.104 65.875 106.365 65.875 105.594V93.8409C73.8183 93.1158 81.2036 89.4474 86.5808 83.5562C91.958 77.6649 94.9386 69.9763 94.9375 62C94.9375 61.2292 94.6313 60.49 94.0863 59.945C93.5413 59.3999 92.8021 59.0938 92.0313 59.0938C91.2605 59.0938 90.5213 59.3999 89.9762 59.945C89.4312 60.49 89.125 61.2292 89.125 62C89.125 65.4349 88.4485 68.8361 87.134 72.0096C85.8195 75.183 83.8929 78.0664 81.464 80.4953C79.0352 82.9241 76.1518 84.8508 72.9783 86.1652C69.8049 87.4797 66.4037 88.1563 62.9688 88.1563C59.5339 88.1563 56.1326 87.4797 52.9592 86.1652C49.7858 84.8508 46.9023 82.9241 44.4735 80.4953C42.0447 78.0664 40.118 75.183 38.8035 72.0096C37.4891 68.8361 36.8125 65.4349 36.8125 62Z" fill="#B0B6BB"/>
<path fill-rule="evenodd" clip-rule="evenodd" d="M75.2989 74.3302C78.5691 71.06 80.4063 66.6247 80.4063 62V32.9375C80.4063 28.3128 78.5691 23.8775 75.2989 20.6073C72.0288 17.3372 67.5935 15.5 62.9688 15.5C58.344 15.5 53.9087 17.3372 50.6386 20.6073C47.3684 23.8775 45.5312 28.3128 45.5312 32.9375V62C45.5312 66.6247 47.3684 71.06 50.6386 74.3302C53.9087 77.6004 58.344 79.4375 62.9688 79.4375C67.5935 79.4375 72.0288 77.6004 75.2989 74.3302ZM62.9688 20.5519C56.4915 20.5519 51.2406 25.8028 51.2406 32.2801V62.6385C51.2406 69.1159 56.4915 74.3667 62.9688 74.3667C69.4461 74.3667 74.697 69.1158 74.697 62.6385V32.2801C74.697 25.8028 69.4461 20.5519 62.9688 20.5519Z" fill="#B0B6BB"/>
</svg>
